<svg xmlns="http://www.w3.org/2000/svg" width="512" height="512" fill="none" viewBox="0 0 512 512">
  <rect width="512" height="512" fill="#00A650" rx="256"/>
  <path fill="#fff" d="M188.33 385.6c-18.96 0-33.48-5.4-43.56-16.2-9.84-10.8-14.76-26.04-14.76-45.72V188.32c0-19.68 4.92-34.92 14.76-45.72 10.08-10.8 24.6-16.2 43.56-16.2s33.36 5.4 43.2 16.2c10.08 10.8 15.12 26.04 15.12 45.72v26.64h-37.44V185.8c0-15.6-6.6-23.4-19.8-23.4-13.2 0-19.8 7.8-19.8 23.4v140.76c0 15.36 6.6 23.04 19.8 23.04 13.2 0 19.8-7.68 19.8-23.04v-38.52h37.44v35.64c0 19.68-5.04 34.92-15.12 45.72-9.84 10.8-24.24 16.2-43.2 16.2Zm134.195 0c-19.2 0-33.72-5.4-43.56-16.2-9.84-11.04-14.76-26.76-14.76-47.16v-14.4h37.44v17.28c0 16.32 6.84 24.48 20.52 24.48 6.72 0 11.76-1.92 15.12-5.76 3.6-4.08 5.4-10.56 5.4-19.44 0-10.56-2.4-19.8-7.2-27.72-4.8-8.16-13.68-17.88-26.64-29.16-16.32-14.4-27.72-27.36-34.2-38.88-6.48-11.76-9.72-24.96-9.72-39.6 0-19.92 5.04-35.28 15.12-46.08 10.08-11.04 24.72-16.56 43.92-16.56 18.96 0 33.24 5.52 42.84 16.56 9.84 10.8 14.76 26.4 14.76 46.8v10.44h-37.44v-12.96c0-8.64-1.68-14.88-5.04-18.72-3.36-4.08-8.28-6.12-14.76-6.12-13.2 0-19.8 8.04-19.8 24.12 0 9.12 2.4 17.64 7.2 25.56 5.04 7.92 14.04 17.52 27 28.8 16.56 14.4 27.96 27.48 34.2 39.24 6.24 11.76 9.36 25.56 9.36 41.4 0 20.64-5.16 36.48-15.48 47.52-10.08 11.04-24.84 16.56-44.28 16.56Z"/>
</svg>
